# xmcd
#
# Track frame offsets:
# 150
# 19787
# 43563
# 76091
# 100736
# 122212
# 154976
# 186068
# 217778
# 243456
# 266866
# 295398
# 335210
#
# Disc length: 4699 seconds
#
#
# Revision: 0
# Processed by: cddbd v1.5.1PL0 Copyright (c) Steve Scherf et al.
# Submitted via: FreeRIP 2.91 
#
DISCID=b912590d
DTITLE=Christ Tabernacle Choir - Inhabit The Praise
DYEAR=2002
DGENRE=Gospel
TTITLE0=Oh That People Everywhere
TTITLE1=Revive Us
TTITLE2=It's My Desire To Praise Him
TTITLE3=Inhabit The Praise
TTITLE4=Flow
TTITLE5=He Loves Me
TTITLE6=High And Lifted Up
TTITLE7=Let The Redeemed
TTITLE8=Cleanser Of My Soul
TTITLE9=My Deliverer
TTITLE10=Jesus, Jesus
TTITLE11=My Heart Belongs To You
TTITLE12=Only Jesus
EXTD=
EXTT0=
EXTT1=
EXTT2=
EXTT3=
EXTT4=
EXTT5=
EXTT6=
EXTT7=
EXTT8=
EXTT9=
EXTT10=
EXTT11=
EXTT12=
PLAYORDER=
